ply
format ascii 1.0
comment VCGLIB generated
element vertex 424
property float x
property float y
property float z
property float nx
property float ny
property float nz
property int flags
element face 796
property list uchar int vertex_indices
property int flags
end_header
0.006796593 0.00167521 0.012 -3.028064 -0.7463511 3.383254 0 
0.007 2.571758e-18 0.012 0 0 3.383254 0 
0.01096965 -3.514714e-18 0.012 1.36035 0.7853982 2.094396 0 
-0.006796593 -0.00167521 0.012 3.028064 0.7463511 3.383254 0 
-0.007 0 0.012 0 0 3.383254 0 
-0.01096965 4.529383e-20 0.012 -1.36035 -0.7853982 2.094396 0 
0.006796593 -0.00167521 0.012 -3.028064 0.746351 3.383254 0 
0.006198192 -0.003253062 0.012 -2.76146 1.449327 3.383254 0 
0.005484827 -0.0095 0.012 1.36035 -2.356194 2.094394 0 
0.005239575 -0.004641858 0.012 -2.334371 2.068072 3.383253 0 
0.003976453 -0.005760887 0.012 -1.771617 2.566629 3.383254 0 
0.002482234 0.006545114 0.012 -1.105902 -2.916023 3.383254 0 
0.003976453 0.005760887 0.012 -1.771617 -2.566629 3.383254 0 
0.005484827 0.0095 0.012 1.36035 2.356195 2.094394 0 
0.005239575 0.004641858 0.012 -2.334371 -2.068072 3.383253 0 
0.006198192 0.003253062 0.012 -2.76146 -1.449327 3.383253 0 
-0.006796593 0.00167521 0.012 3.028064 -0.746351 3.383254 0 
-0.006198192 0.003253062 0.012 2.76146 -1.449327 3.383254 0 
-0.005484827 0.0095 0.012 -1.36035 2.356194 2.094394 0 
-0.005239575 0.004641858 0.012 2.334371 -2.068072 3.383253 0 
-0.003976453 0.005760887 0.012 1.771617 -2.566629 3.383254 0 
-0.002482234 -0.006545114 0.012 1.105902 2.916023 3.383254 0 
-0.003976453 -0.005760887 0.012 1.771617 2.566629 3.383254 0 
-0.005484827 -0.0095 0.012 -1.36035 -2.356195 2.094394 0 
-0.005239575 -0.004641858 0.012 2.334371 2.068072 3.383253 0 
-0.006198192 -0.003253062 0.012 2.76146 1.449327 3.383253 0 
0.002482234 -0.006545114 0.012 -1.105902 2.916023 3.383254 0 
0.0008437568 -0.006948962 0.012 -0.3759163 3.095949 3.383254 0 
-0.0008437568 -0.006948962 0.012 0.3759162 3.095949 3.383254 0 
-0.002482234 0.006545114 0.012 1.105902 -2.916023 3.383254 0 
-0.0008437568 0.006948962 0.012 0.3759163 -3.095949 3.383254 0 
0.0008437568 0.006948962 0.012 -0.3759162 -3.095949 3.383254 0 
-0.006942234 0.001711107 0 -3.028063 0.7463505 -3.383254 0 
-0.00715 8.756225e-19 0 -3.118687 7.450581e-09 -3.383254 0 
-0.01096965 4.529383e-20 0 -1.36035 -0.7853982 -2.094395 0 
0.006942234 -0.001711107 0 3.028063 -0.7463505 -3.383254 0 
0.00715 -1.751245e-18 0 0 0 -3.383254 0 
0.01096965 -3.514714e-18 0 0 0 -2.094394 0 
0.006942234 0.001711107 0 3.028063 0.7463504 -3.383254 0 
0.006331011 0.003322771 0 2.76146 1.449326 -3.383254 0 
0.005484827 0.0095 0 0 1.570796 -2.094395 0 
0.005351852 0.004741327 0 2.334371 2.068072 -3.383254 0 
0.004061663 0.005884334 0 1.771616 2.566629 -3.383254 0 
-0.002535425 0.006685366 0 -1.105901 2.916023 -3.383254 0 
-0.004061663 0.005884334 0 -1.771616 2.566629 -3.383254 0 
-0.005484827 0.0095 0 0 1.570796 -2.094396 0 
-0.005351852 0.004741327 0 -2.334371 2.068072 -3.383253 0 
-0.006331011 0.003322771 0 -2.76146 1.449326 -3.383254 0 
-0.006942234 -0.001711107 0 -3.028063 -0.7463504 -3.383254 0 
-0.006331011 -0.003322771 0 -2.76146 -1.449326 -3.383254 0 
-0.005484827 -0.0095 0 -1.36035 -2.356194 -2.094395 0 
-0.005351852 -0.004741327 0 -2.334371 -2.068072 -3.383254 0 
-0.004061663 -0.005884334 0 -1.771616 -2.566629 -3.383254 0 
0.002535425 0.006685366 0 1.105901 2.916023 -3.383254 0 
0.0008618372 0.007097868 0 0.3759162 3.095948 -3.383254 0 
-0.0008618372 0.007097868 0 -0.3759162 3.095948 -3.383254 0 
-0.002535425 -0.006685366 0 -1.105901 -2.916023 -3.383254 0 
-0.0008618372 -0.007097868 0 -0.3759162 -3.095948 -3.383254 0 
0.005484827 -0.0095 0 0 -1.570796 -2.094396 0 
0.0008618372 -0.007097868 0 0.3759162 -3.095948 -3.383254 0 
0.002535425 -0.006685366 0 1.105901 -2.916023 -3.383254 0 
0.004061663 -0.005884334 0 1.771616 -2.566629 -3.383254 0 
0.005351852 -0.004741327 0 2.334371 -2.068072 -3.383253 0 
0.006331011 -0.003322771 0 2.76146 -1.449326 -3.383254 0 
0.005484827 0.0095 -6.938894e-18 1.36035 0.7853982 0 0 
0.01096965 -3.514714e-18 -6.938894e-18 1.36035 0.7853982 0 0 
-0.01096965 0 0.012 -1.36035 0.7853982 0 0 
-0.01096965 0 6.938894e-18 -1.36035 0.7853982 0 0 
-0.005484827 0.0095 6.938894e-18 -1.36035 0.7853982 0 0 
0.01096965 -3.469447e-18 0.012 1.36035 -0.7853982 0 0 
0.01096965 -3.469447e-18 6.938894e-18 1.36035 -0.7853982 0 0 
0.005484827 -0.0095 6.938894e-18 1.36035 -0.7853982 0 0 
-0.007 -1.714506e-18 0.012 3.118687 4.470348e-08 0 0 
-0.007 -1.714506e-18 0 3.118688 -4.470348e-08 0 0 
-0.006796593 0.00167521 0 3.028064 -0.746351 2.899931 0 
-0.006198192 0.003253062 0 2.76146 -1.449327 2.899931 0 
-0.005239575 0.004641858 0 2.334371 -2.068072 2.899932 0 
-0.003976453 0.005760887 0 1.771617 -2.566629 2.899931 0 
-0.002482234 0.006545114 0 1.105902 -2.916023 2.899931 0 
-0.0008437568 0.006948962 0 0.3759162 -3.095949 2.899932 0 
0.0008437568 0.006948962 0 -0.3759163 -3.095949 2.899932 0 
0.002482234 0.006545114 0 -1.105902 -2.916023 2.899931 0 
0.003976453 0.005760887 0 -1.771617 -2.566629 2.899931 0 
0.005239575 0.004641858 0 -2.334371 -2.068072 2.899932 0 
0.006198192 0.003253062 0 -2.76146 -1.449327 2.899932 0 
0.006796593 0.00167521 0 -3.028064 -0.7463509 2.899931 0 
0.007 8.572528e-19 0.012 -3.118688 -4.470348e-08 0 0 
0.007 8.572528e-19 0 -3.118688 4.470348e-08 2.899931 0 
0.006796593 -0.00167521 0 -3.028064 0.746351 2.899931 0 
0.006198192 -0.003253062 0 -2.76146 1.449327 2.899931 0 
0.005239575 -0.004641858 0 -2.334371 2.068072 2.899932 0 
0.003976453 -0.005760887 0 -1.771617 2.566629 2.899931 0 
0.002482234 -0.006545114 0 -1.105902 2.916023 2.899931 0 
0.0008437568 -0.006948962 0 -0.3759162 3.095949 2.899932 0 
-0.0008437568 -0.006948962 0 0.3759163 3.095949 2.899932 0 
-0.002482234 -0.006545114 0 1.105902 2.916023 2.899931 0 
-0.003976453 -0.005760887 0 1.771617 2.566629 2.899931 0 
-0.005239575 -0.004641858 0 2.334371 2.068072 2.899932 0 
-0.006198192 -0.003253062 0 2.76146 1.449327 2.899932 0 
-0.006796593 -0.00167521 0 3.028064 0.7463509 2.899931 0 
1.734723e-18 0.006 0 0 0 3.403392 0 
-0.001552914 0.005795555 0 0.806148 -3.008585 3.403392 0 
-0.003 0.005196152 0 1.557359 -2.697423 3.403392 0 
-0.00424264 0.00424264 0 2.202437 -2.202437 3.403392 0 
-0.005196152 0.003 0 2.697423 -1.557359 3.403392 0 
-0.005795555 0.001552914 0 3.008585 -0.806148 3.403392 0 
-0.006 3.399323e-18 0 3.114716 2.980232e-08 3.403392 0 
-0.007 0 0 0 0 2.899931 0 
-0.005795555 -0.001552914 0 3.008585 0.806148 3.403392 0 
-0.005196152 -0.003 0 2.697423 1.557359 3.403392 0 
-0.00424264 -0.00424264 0 2.202437 2.202437 3.403392 0 
-0.003 -0.005196152 0 1.557359 2.697423 3.403392 0 
-0.001552914 -0.005795555 0 0.806148 3.008585 3.403392 0 
-6.071532e-18 -0.006 0 0 0 3.403392 0 
0.001552914 -0.005795555 0 -0.806148 3.008585 3.403392 0 
0.003 -0.005196152 0 -1.557359 2.697423 3.403392 0 
0.00424264 -0.00424264 0 -2.202437 2.202437 3.403392 0 
0.005196152 -0.003 0 -2.697423 1.557359 3.403392 0 
0.005795555 -0.001552914 0 -3.008585 0.806148 3.403392 0 
0.006 0 0 0 0 3.403392 0 
0.005795555 0.001552914 0 -3.008585 -0.806148 3.403392 0 
0.005196152 0.003 0 -2.697423 -1.557359 3.403392 0 
0.00424264 0.00424264 0 -2.202437 -2.202437 3.403392 0 
0.003 0.005196152 0 -1.557359 -2.697423 3.403392 0 
0.001552914 0.005795555 0 -0.806148 -3.008585 3.403392 0 
0.00715 0 0 3.118687 -7.450581e-09 0 0 
0.006942234 0.001711107 -0.002 6.0165 1.482934 -0.3184008 0 
0.006331011 0.003322771 -0.002 5.486781 2.879685 -0.3184007 0 
0.005351852 0.004741327 -0.002 4.638192 4.10908 -0.3184006 0 
0.004061663 0.005884334 -0.002 3.520047 5.099669 -0.3184007 0 
0.002535425 0.006685366 -0.002 2.19733 5.793884 -0.3184007 0 
0.0008618372 0.007097868 -0.002 0.7469128 6.151381 -0.3184006 0 
-0.0008618372 0.007097868 -0.002 -0.7469128 6.151381 -0.3184006 0 
-0.002535425 0.006685366 -0.002 -2.19733 5.793884 -0.3184007 0 
-0.004061663 0.005884334 -0.002 -3.520047 5.099669 -0.3184006 0 
-0.005351852 0.004741327 -0.002 -4.638192 4.10908 -0.3184007 0 
-0.006331011 0.003322771 -0.002 -5.486781 2.879685 -0.3184008 0 
-0.006942234 0.001711107 -0.002 -6.0165 1.482934 -0.3184007 0 
-0.00715 8.756225e-19 -0.002 -3.118687 0 0 0 
-0.006942234 -0.001711107 -0.002 -6.0165 -1.482934 -0.3184008 0 
-0.006331011 -0.003322771 -0.002 -5.486781 -2.879685 -0.3184007 0 
-0.005351852 -0.004741327 -0.002 -4.638192 -4.10908 -0.3184006 0 
-0.004061663 -0.005884334 -0.002 -3.520047 -5.099669 -0.3184007 0 
-0.002535425 -0.006685366 -0.002 -2.19733 -5.793884 -0.3184007 0 
-0.0008618372 -0.007097868 -0.002 -0.7469128 -6.151381 -0.3184006 0 
0.0008618372 -0.007097868 -0.002 0.7469128 -6.151381 -0.3184006 0 
0.002535425 -0.006685366 -0.002 2.19733 -5.793884 -0.3184007 0 
0.004061663 -0.005884334 -0.002 3.520047 -5.099669 -0.3184006 0 
0.005351852 -0.004741327 -0.002 4.638192 -4.10908 -0.3184007 0 
0.006331011 -0.003322771 -0.002 5.486781 -2.879685 -0.3184008 0 
0.006942234 -0.001711107 -0.002 6.0165 -1.482934 -0.3184007 0 
0.00715 0 -0.002 6.19656 -1.862645e-08 -0.3184007 0 
0.006359669 0.001567518 -0.0078 3.036006 0.7483087 3.059785 0 
0.005799737 0.003043937 -0.0078 2.768704 1.453128 3.059784 0 
0.004902746 0.004343453 -0.0078 2.340494 2.073497 3.059785 0 
0.003720824 0.005390544 -0.0078 1.776263 2.573362 3.059784 0 
0.002322662 0.006124356 -0.0078 1.108803 2.923672 3.059784 0 
0.0007895153 0.006502243 -0.0078 0.3769024 3.104069 3.059785 0 
-0.0007895153 0.006502243 -0.0078 -0.3769025 3.104069 3.059784 0 
-0.002322662 0.006124356 -0.0078 -1.108803 2.923672 3.059784 0 
-0.003720824 0.005390544 -0.0078 -1.776263 2.573362 3.059784 0 
-0.004902746 0.004343453 -0.0078 -2.340495 2.073497 3.059785 0 
-0.005799737 0.003043937 -0.0078 -2.768704 1.453128 3.059784 0 
-0.006359669 0.001567518 -0.0078 -3.036006 0.7483085 3.059784 0 
-0.00655 1.272593e-18 -0.0078 -3.126868 -4.470348e-08 -0.323469 0 
-0.00715 1.389167e-18 -0.002 -3.077873 1.490116e-08 -0.3184007 0 
-0.006359669 -0.001567518 -0.0078 -3.036006 -0.7483087 3.059785 0 
-0.005799737 -0.003043937 -0.0078 -2.768704 -1.453128 3.059784 0 
-0.004902746 -0.004343453 -0.0078 -2.340494 -2.073497 3.059785 0 
-0.003720824 -0.005390544 -0.0078 -1.776263 -2.573362 3.059784 0 
-0.002322662 -0.006124356 -0.0078 -1.108803 -2.923672 3.059784 0 
-0.0007895153 -0.006502243 -0.0078 -0.3769024 -3.104069 3.059785 0 
0.0007895153 -0.006502243 -0.0078 0.3769025 -3.104069 3.059784 0 
0.002322662 -0.006124356 -0.0078 1.108803 -2.923672 3.059784 0 
0.003720824 -0.005390544 -0.0078 1.776263 -2.573362 3.059784 0 
0.004902746 -0.004343453 -0.0078 2.340495 -2.073497 3.059785 0 
0.005799737 -0.003043937 -0.0078 2.768704 -1.453128 3.059784 0 
0.006359669 -0.001567518 -0.0078 3.036006 -0.7483085 3.059784 0 
0.00655 0 -0.0078 3.126868 4.470348e-08 3.059785 0 
0.006942234 0.001711107 -0.0078 3.028064 0.7463505 2.899932 0 
0.006331011 0.003322771 -0.0078 2.76146 1.449326 2.899931 0 
0.005351852 0.004741327 -0.0078 2.334371 2.068072 2.899932 0 
0.004061663 0.005884334 -0.0078 1.771616 2.566629 2.899932 0 
0.002535425 0.006685366 -0.0078 1.105902 2.916023 2.899932 0 
0.0008618372 0.007097868 -0.0078 0.3759162 3.095948 2.899931 0 
-0.0008618372 0.007097868 -0.0078 -0.3759162 3.095948 2.899931 0 
-0.002535425 0.006685366 -0.0078 -1.105902 2.916023 2.899932 0 
-0.004061663 0.005884334 -0.0078 -1.771616 2.566629 2.899932 0 
-0.005351852 0.004741327 -0.0078 -2.334371 2.068072 2.899932 0 
-0.006331011 0.003322771 -0.0078 -2.76146 1.449326 2.899931 0 
-0.006942234 0.001711107 -0.0078 -3.028064 0.7463505 2.899932 0 
-0.00655 6.619712e-18 -0.0078 0 0 3.383254 0 
-0.00715 8.756225e-19 -0.0078 -3.118687 -7.450581e-09 2.899932 0 
-0.006942234 -0.001711107 -0.0078 -3.028064 -0.7463505 2.899932 0 
-0.006331011 -0.003322771 -0.0078 -2.76146 -1.449326 2.899931 0 
-0.005351852 -0.004741327 -0.0078 -2.334371 -2.068072 2.899932 0 
-0.004061663 -0.005884334 -0.0078 -1.771616 -2.566629 2.899932 0 
-0.002535425 -0.006685366 -0.0078 -1.105902 -2.916023 2.899932 0 
-0.0008618372 -0.007097868 -0.0078 -0.3759162 -3.095948 2.899931 0 
0.0008618372 -0.007097868 -0.0078 0.3759162 -3.095948 2.899931 0 
0.002535425 -0.006685366 -0.0078 1.105902 -2.916023 2.899932 0 
0.004061663 -0.005884334 -0.0078 1.771616 -2.566629 2.899932 0 
0.005351852 -0.004741327 -0.0078 2.334371 -2.068072 2.899932 0 
0.006331011 -0.003322771 -0.0078 2.76146 -1.449326 2.899931 0 
0.006942234 -0.001711107 -0.0078 3.028064 -0.7463505 2.899932 0 
0.00715 -1.751245e-18 -0.0078 0 0 2.899932 0 
0.00715 0 -0.0078 3.118687 7.450581e-09 0 0 
0.006942234 0.001711107 -0.0093 6.007376 1.480685 -0.3682173 0 
0.006331011 0.003322771 -0.0093 5.478461 2.875319 -0.3682172 0 
0.005351852 0.004741327 -0.0093 4.631159 4.102849 -0.3682171 0 
0.004061663 0.005884334 -0.0093 3.51471 5.091936 -0.3682172 0 
0.002535425 0.006685366 -0.0093 2.193999 5.785099 -0.3682172 0 
0.0008618372 0.007097868 -0.0093 0.7457803 6.142053 -0.3682171 0 
-0.0008618372 0.007097868 -0.0093 -0.7457802 6.142053 -0.3682171 0 
-0.002535425 0.006685366 -0.0093 -2.193999 5.7851 -0.3682172 0 
-0.004061663 0.005884334 -0.0093 -3.51471 5.091936 -0.3682172 0 
-0.005351852 0.004741327 -0.0093 -4.631159 4.102849 -0.3682172 0 
-0.006331011 0.003322771 -0.0093 -5.478461 2.875319 -0.3682173 0 
-0.006942234 0.001711107 -0.0093 -6.007376 1.480685 -0.3682172 0 
-0.00715 8.756225e-19 -0.0093 -3.118687 0 0 0 
-0.006942234 -0.001711107 -0.0093 -6.007377 -1.480685 -0.3682173 0 
-0.006331011 -0.003322771 -0.0093 -5.478461 -2.875319 -0.3682172 0 
-0.005351852 -0.004741327 -0.0093 -4.631159 -4.102849 -0.3682171 0 
-0.004061663 -0.005884334 -0.0093 -3.51471 -5.091936 -0.3682172 0 
-0.002535425 -0.006685366 -0.0093 -2.193999 -5.785099 -0.3682172 0 
-0.0008618372 -0.007097868 -0.0093 -0.7457803 -6.142053 -0.3682171 0 
0.0008618372 -0.007097868 -0.0093 0.7457802 -6.142053 -0.3682171 0 
0.002535425 -0.006685366 -0.0093 2.193999 -5.7851 -0.3682172 0 
0.004061663 -0.005884334 -0.0093 3.51471 -5.091936 -0.3682172 0 
0.005351852 -0.004741327 -0.0093 4.631159 -4.102849 -0.3682172 0 
0.006331011 -0.003322771 -0.0093 5.478461 -2.875319 -0.3682173 0 
0.006942234 -0.001711107 -0.0093 6.007376 -1.480685 -0.3682172 0 
0.00715 0 -0.0093 6.187164 2.607703e-08 -0.3682173 0 
0.006359669 0.001567518 -0.0143 3.034296 0.7478869 3.008241 0 
0.005799737 0.003043937 -0.0143 2.767143 1.452309 3.00824 0 
0.004902746 0.004343453 -0.0143 2.339175 2.072328 3.008241 0 
0.003720824 0.005390544 -0.0143 1.775262 2.571911 3.008241 0 
0.002322662 0.006124356 -0.0143 1.108178 2.922024 3.008241 0 
0.0007895153 0.006502243 -0.0143 0.37669 3.10232 3.008241 0 
-0.0007895153 0.006502243 -0.0143 -0.3766901 3.10232 3.008241 0 
-0.002322662 0.006124356 -0.0143 -1.108178 2.922024 3.008241 0 
-0.003720824 0.005390544 -0.0143 -1.775262 2.571911 3.008241 0 
-0.004902746 0.004343453 -0.0143 -2.339175 2.072328 3.008241 0 
-0.005799737 0.003043937 -0.0143 -2.767143 1.452309 3.008241 0 
-0.006359669 0.001567518 -0.0143 -3.034296 0.7478868 3.008241 0 
-0.00655 1.272593e-18 -0.0143 -3.125105 -1.341105e-07 -0.3750126 0 
-0.00715 1.389167e-18 -0.0093 -3.068477 -2.980232e-08 -0.3682173 0 
-0.006359669 -0.001567518 -0.0143 -3.034296 -0.747887 3.008241 0 
-0.005799737 -0.003043937 -0.0143 -2.767143 -1.452309 3.00824 0 
-0.004902746 -0.004343453 -0.0143 -2.339175 -2.072328 3.008241 0 
-0.003720824 -0.005390544 -0.0143 -1.775262 -2.571911 3.008241 0 
-0.002322662 -0.006124356 -0.0143 -1.108178 -2.922024 3.008241 0 
-0.0007895153 -0.006502243 -0.0143 -0.37669 -3.10232 3.008241 0 
0.0007895153 -0.006502243 -0.0143 0.3766901 -3.10232 3.008241 0 
0.002322662 -0.006124356 -0.0143 1.108178 -2.922024 3.008241 0 
0.003720824 -0.005390544 -0.0143 1.775262 -2.571911 3.008241 0 
0.004902746 -0.004343453 -0.0143 2.339175 -2.072328 3.008241 0 
0.005799737 -0.003043937 -0.0143 2.767143 -1.452309 3.008241 0 
0.006359669 -0.001567518 -0.0143 3.034296 -0.7478868 3.008241 0 
0.00655 0 -0.0143 3.125105 1.341105e-07 3.008241 0 
0.006942234 0.001711107 -0.0143 3.028064 0.7463505 2.899932 0 
0.006331011 0.003322771 -0.0143 2.76146 1.449326 2.899931 0 
0.005351852 0.004741327 -0.0143 2.334371 2.068072 2.899932 0 
0.004061663 0.005884334 -0.0143 1.771616 2.566629 2.899932 0 
0.002535425 0.006685366 -0.0143 1.105902 2.916023 2.899932 0 
0.0008618372 0.007097868 -0.0143 0.3759162 3.095948 2.899931 0 
-0.0008618372 0.007097868 -0.0143 -0.3759162 3.095948 2.899931 0 
-0.002535425 0.006685366 -0.0143 -1.105902 2.916023 2.899932 0 
-0.004061663 0.005884334 -0.0143 -1.771616 2.566629 2.899932 0 
-0.005351852 0.004741327 -0.0143 -2.334371 2.068072 2.899932 0 
-0.006331011 0.003322771 -0.0143 -2.76146 1.449326 2.899931 0 
-0.006942234 0.001711107 -0.0143 -3.028064 0.7463505 2.899932 0 
-0.00655 6.619712e-18 -0.0143 0 0 3.383254 0 
-0.00715 8.756225e-19 -0.0143 -3.118687 2.235174e-08 2.899932 0 
-0.006942234 -0.001711107 -0.0143 -3.028064 -0.7463505 2.899932 0 
-0.006331011 -0.003322771 -0.0143 -2.76146 -1.449326 2.899931 0 
-0.005351852 -0.004741327 -0.0143 -2.334371 -2.068072 2.899932 0 
-0.004061663 -0.005884334 -0.0143 -1.771616 -2.566629 2.899932 0 
-0.002535425 -0.006685366 -0.0143 -1.105902 -2.916023 2.899932 0 
-0.0008618372 -0.007097868 -0.0143 -0.3759162 -3.095948 2.899931 0 
0.0008618372 -0.007097868 -0.0143 0.3759162 -3.095948 2.899931 0 
0.002535425 -0.006685366 -0.0143 1.105902 -2.916023 2.899932 0 
0.004061663 -0.005884334 -0.0143 1.771616 -2.566629 2.899932 0 
0.005351852 -0.004741327 -0.0143 2.334371 -2.068072 2.899932 0 
0.006331011 -0.003322771 -0.0143 2.76146 -1.449326 2.899931 0 
0.006942234 -0.001711107 -0.0143 3.028064 -0.7463505 2.899932 0 
0.00715 -1.751245e-18 -0.0143 0 0 2.899932 0 
0.00715 0 -0.0143 3.118687 -2.235174e-08 0 0 
0.006942234 0.001711107 -0.0158 6.007377 1.480685 -0.3682173 0 
0.006331011 0.003322771 -0.0158 5.478462 2.875319 -0.3682172 0 
0.005351852 0.004741327 -0.0158 4.631159 4.102849 -0.3682171 0 
0.004061663 0.005884334 -0.0158 3.51471 5.091936 -0.3682171 0 
0.002535425 0.006685366 -0.0158 2.193999 5.7851 -0.3682172 0 
0.0008618372 0.007097868 -0.0158 0.7457803 6.142053 -0.3682171 0 
-0.0008618372 0.007097868 -0.0158 -0.7457804 6.142054 -0.3682171 0 
-0.002535425 0.006685366 -0.0158 -2.193999 5.785099 -0.3682172 0 
-0.004061663 0.005884334 -0.0158 -3.51471 5.091936 -0.3682171 0 
-0.005351852 0.004741327 -0.0158 -4.631159 4.102849 -0.3682172 0 
-0.006331011 0.003322771 -0.0158 -5.478462 2.875319 -0.3682173 0 
-0.006942234 0.001711107 -0.0158 -6.007377 1.480685 -0.3682172 0 
-0.00715 8.756225e-19 -0.0158 -3.118687 -2.980232e-08 0 0 
-0.006942234 -0.001711107 -0.0158 -6.007377 -1.480685 -0.3682173 0 
-0.006331011 -0.003322771 -0.0158 -5.478462 -2.875319 -0.3682172 0 
-0.005351852 -0.004741327 -0.0158 -4.631159 -4.102849 -0.3682171 0 
-0.004061663 -0.005884334 -0.0158 -3.51471 -5.091936 -0.3682171 0 
-0.002535425 -0.006685366 -0.0158 -2.193999 -5.7851 -0.3682172 0 
-0.0008618372 -0.007097868 -0.0158 -0.7457803 -6.142053 -0.3682171 0 
0.0008618372 -0.007097868 -0.0158 0.7457804 -6.142054 -0.3682171 0 
0.002535425 -0.006685366 -0.0158 2.193999 -5.785099 -0.3682172 0 
0.004061663 -0.005884334 -0.0158 3.51471 -5.091936 -0.3682171 0 
0.005351852 -0.004741327 -0.0158 4.631159 -4.102849 -0.3682172 0 
0.006331011 -0.003322771 -0.0158 5.478462 -2.875319 -0.3682173 0 
0.006942234 -0.001711107 -0.0158 6.007377 -1.480685 -0.3682172 0 
0.00715 0 -0.0158 6.187164 3.72529e-08 -0.3682172 0 
0.006359669 0.001567518 -0.0208 3.034296 0.7478868 3.008241 0 
0.005799737 0.003043937 -0.0208 2.767144 1.452309 3.008241 0 
0.004902746 0.004343453 -0.0208 2.339175 2.072328 3.008241 0 
0.003720824 0.005390544 -0.0208 1.775262 2.571911 3.008241 0 
0.002322662 0.006124356 -0.0208 1.108178 2.922024 3.008241 0 
0.0007895153 0.006502243 -0.0208 0.37669 3.10232 3.008241 0 
-0.0007895153 0.006502243 -0.0208 -0.3766901 3.10232 3.008241 0 
-0.002322662 0.006124356 -0.0208 -1.108178 2.922024 3.008241 0 
-0.003720824 0.005390544 -0.0208 -1.775262 2.571911 3.008241 0 
-0.004902746 0.004343453 -0.0208 -2.339175 2.072328 3.008241 0 
-0.005799737 0.003043937 -0.0208 -2.767144 1.452309 3.008241 0 
-0.006359669 0.001567518 -0.0208 -3.034296 0.7478868 3.008241 0 
-0.00655 1.272593e-18 -0.0208 -3.125106 5.960464e-08 -0.3750126 0 
-0.00715 1.389167e-18 -0.0158 -3.068478 -1.490116e-08 -0.3682172 0 
-0.006359669 -0.001567518 -0.0208 -3.034296 -0.7478868 3.008241 0 
-0.005799737 -0.003043937 -0.0208 -2.767144 -1.452309 3.008241 0 
-0.004902746 -0.004343453 -0.0208 -2.339175 -2.072328 3.008241 0 
-0.003720824 -0.005390544 -0.0208 -1.775262 -2.571911 3.008241 0 
-0.002322662 -0.006124356 -0.0208 -1.108178 -2.922024 3.008241 0 
-0.0007895153 -0.006502243 -0.0208 -0.37669 -3.10232 3.008241 0 
0.0007895153 -0.006502243 -0.0208 0.3766901 -3.10232 3.008241 0 
0.002322662 -0.006124356 -0.0208 1.108178 -2.922024 3.008241 0 
0.003720824 -0.005390544 -0.0208 1.775262 -2.571911 3.008241 0 
0.004902746 -0.004343453 -0.0208 2.339175 -2.072328 3.008241 0 
0.005799737 -0.003043937 -0.0208 2.767144 -1.452309 3.008241 0 
0.006359669 -0.001567518 -0.0208 3.034296 -0.7478868 3.008241 0 
0.00655 0 -0.0208 3.125106 -5.960464e-08 3.008241 0 
0.006942234 0.001711107 -0.0208 3.028064 0.7463505 2.899932 0 
0.006331011 0.003322771 -0.0208 2.76146 1.449326 2.899931 0 
0.005351852 0.004741327 -0.0208 2.334371 2.068072 2.899932 0 
0.004061663 0.005884334 -0.0208 1.771616 2.566629 2.899932 0 
0.002535425 0.006685366 -0.0208 1.105902 2.916023 2.899932 0 
0.0008618372 0.007097868 -0.0208 0.3759162 3.095948 2.899931 0 
-0.0008618372 0.007097868 -0.0208 -0.3759162 3.095948 2.899931 0 
-0.002535425 0.006685366 -0.0208 -1.105901 2.916023 2.899932 0 
-0.004061663 0.005884334 -0.0208 -1.771616 2.566629 2.899932 0 
-0.005351852 0.004741327 -0.0208 -2.334371 2.068072 2.899932 0 
-0.006331011 0.003322771 -0.0208 -2.76146 1.449326 2.899931 0 
-0.006942234 0.001711107 -0.0208 -3.028064 0.7463505 2.899932 0 
-0.00655 6.619712e-18 -0.0208 0 0 3.383254 0 
-0.00715 8.756225e-19 -0.0208 -3.118687 1.490116e-08 2.899932 0 
-0.006942234 -0.001711107 -0.0208 -3.028064 -0.7463505 2.899932 0 
-0.006331011 -0.003322771 -0.0208 -2.76146 -1.449326 2.899931 0 
-0.005351852 -0.004741327 -0.0208 -2.334371 -2.068072 2.899932 0 
-0.004061663 -0.005884334 -0.0208 -1.771616 -2.566629 2.899932 0 
-0.002535425 -0.006685366 -0.0208 -1.105902 -2.916023 2.899932 0 
-0.0008618372 -0.007097868 -0.0208 -0.3759162 -3.095948 2.899931 0 
0.0008618372 -0.007097868 -0.0208 0.3759162 -3.095948 2.899931 0 
0.002535425 -0.006685366 -0.0208 1.105901 -2.916023 2.899932 0 
0.004061663 -0.005884334 -0.0208 1.771616 -2.566629 2.899932 0 
0.005351852 -0.004741327 -0.0208 2.334371 -2.068072 2.899932 0 
0.006331011 -0.003322771 -0.0208 2.76146 -1.449326 2.899931 0 
0.006942234 -0.001711107 -0.0208 3.028064 -0.7463505 2.899932 0 
0.00715 -1.751245e-18 -0.0208 0 0 2.899932 0 
0.00715 0 -0.0208 3.118687 -1.117587e-08 0 0 
0.006942234 0.001711107 -0.024 3.028064 0.7463505 -2.899932 0 
0.006331011 0.003322771 -0.024 2.76146 1.449326 -2.899931 0 
0.005351852 0.004741327 -0.024 2.334371 2.068072 -2.899932 0 
0.004061663 0.005884334 -0.024 1.771616 2.566629 -2.899931 0 
0.002535425 0.006685366 -0.024 1.105902 2.916023 -2.899932 0 
0.0008618372 0.007097868 -0.024 0.3759162 3.095948 -2.899932 0 
-0.0008618372 0.007097868 -0.024 -0.3759162 3.095948 -2.899931 0 
-0.002535425 0.006685366 -0.024 -1.105902 2.916023 -2.899932 0 
-0.004061663 0.005884334 -0.024 -1.771616 2.566629 -2.899932 0 
-0.005351852 0.004741327 -0.024 -2.334371 2.068072 -2.899932 0 
-0.006331011 0.003322771 -0.024 -2.76146 1.449326 -2.899931 0 
-0.006942234 0.001711107 -0.024 -3.028063 0.7463505 -2.899932 0 
-0.00715 8.756225e-19 -0.024 -3.118687 -1.490116e-08 -2.899932 0 
-0.006942234 -0.001711107 -0.024 -3.028064 -0.7463505 -2.899932 0 
-0.006331011 -0.003322771 -0.024 -2.76146 -1.449326 -2.899931 0 
-0.005351852 -0.004741327 -0.024 -2.334371 -2.068072 -2.899932 0 
-0.004061663 -0.005884334 -0.024 -1.771616 -2.566629 -2.899931 0 
-0.002535425 -0.006685366 -0.024 -1.105902 -2.916023 -2.899932 0 
-0.0008618372 -0.007097868 -0.024 -0.3759162 -3.095948 -2.899932 0 
0.0008618372 -0.007097868 -0.024 0.3759162 -3.095948 -2.899931 0 
0.002535425 -0.006685366 -0.024 1.105902 -2.916023 -2.899932 0 
0.004061663 -0.005884334 -0.024 1.771616 -2.566629 -2.899932 0 
0.005351852 -0.004741327 -0.024 2.334371 -2.068072 -2.899932 0 
0.006331011 -0.003322771 -0.024 2.76146 -1.449326 -2.899931 0 
0.006942234 -0.001711107 -0.024 3.028063 -0.7463505 -2.899932 0 
0.00715 0 -0.024 3.118687 1.490116e-08 -2.899932 0 
-6.071532e-18 -0.006 -0.024 0 0 -3.403392 0 
-0.001552914 -0.005795555 -0.024 0.8061481 3.008585 -3.403392 0 
-0.003 -0.005196152 -0.024 1.557359 2.697423 -3.403392 0 
-0.00424264 -0.00424264 -0.024 2.202437 2.202437 -3.403391 0 
-0.005196152 -0.003 -0.024 2.697423 1.557359 -3.403392 0 
-0.005795555 -0.001552914 -0.024 3.008585 0.806148 -3.403392 0 
-0.006 3.399323e-18 -0.024 3.114716 -2.980232e-08 -3.403392 0 
-0.005795555 0.001552914 -0.024 3.008585 -0.8061481 -3.403392 0 
-0.005196152 0.003 -0.024 2.697423 -1.557359 -3.403392 0 
-0.00424264 0.00424264 -0.024 2.202437 -2.202437 -3.403392 0 
-0.003 0.005196152 -0.024 1.557359 -2.697423 -3.403392 0 
-0.001552914 0.005795555 -0.024 0.806148 -3.008585 -3.403392 0 
1.734723e-18 0.006 -0.024 0 0 -3.403392 0 
0.001552914 0.005795555 -0.024 -0.8061481 -3.008585 -3.403392 0 
0.003 0.005196152 -0.024 -1.557359 -2.697423 -3.403392 0 
0.00424264 0.00424264 -0.024 -2.202437 -2.202437 -3.403391 0 
0.005196152 0.003 -0.024 -2.697423 -1.557359 -3.403392 0 
0.005795555 0.001552914 -0.024 -3.008585 -0.806148 -3.403392 0 
0.006 -1.469576e-18 -0.024 -3.114716 2.421439e-08 -3.403392 0 
0.005795555 -0.001552914 -0.024 -3.008585 0.8061481 -3.403392 0 
0.005196152 -0.003 -0.024 -2.697423 1.557359 -3.403392 0 
0.00424264 -0.00424264 -0.024 -2.202437 2.202437 -3.403392 0 
0.003 -0.005196152 -0.024 -1.557359 2.697423 -3.403392 0 
0.001552914 -0.005795555 -0.024 -0.806148 3.008585 -3.403392 0 
0.006 -1.469576e-18 0 -3.114716 -2.980232e-08 0 0 
1.699662e-18 0.006 -0.024 -2.980232e-08 -3.114716 0 0 
1.699662e-18 0.006 0 2.980232e-08 -3.114716 0 0 
-6.431253e-18 -0.006 -0.024 2.980232e-08 3.114716 0 0 
-6.431253e-18 -0.006 0 -2.980232e-08 3.114716 0 0 
3 0 1 2 0 
3 3 4 5 0 
3 1 6 2 0 
3 2 6 7 0 
3 2 7 8 0 
3 8 7 9 0 
3 8 9 10 0 
3 11 12 13 0 
3 13 12 14 0 
3 13 14 2 0 
3 2 14 15 0 
3 2 15 0 0 
3 4 16 5 0 
3 5 16 17 0 
3 5 17 18 0 
3 18 17 19 0 
3 18 19 20 0 
3 21 22 23 0 
3 23 22 24 0 
3 23 24 5 0 
3 5 24 25 0 
3 5 25 3 0 
3 10 26 8 0 
3 8 26 27 0 
3 8 27 23 0 
3 23 27 28 0 
3 23 28 21 0 
3 20 29 18 0 
3 18 29 30 0 
3 18 30 13 0 
3 13 30 31 0 
3 13 31 11 0 
3 32 33 34 0 
3 35 36 37 0 
3 36 38 37 0 
3 37 38 39 0 
3 37 39 40 0 
3 40 39 41 0 
3 40 41 42 0 
3 43 44 45 0 
3 45 44 46 0 
3 45 46 34 0 
3 34 46 47 0 
3 34 47 32 0 
3 33 48 34 0 
3 34 48 49 0 
3 34 49 50 0 
3 50 49 51 0 
3 50 51 52 0 
3 42 53 40 0 
3 40 53 54 0 
3 40 54 45 0 
3 45 54 55 0 
3 45 55 43 0 
3 52 56 50 0 
3 50 56 57 0 
3 50 57 58 0 
3 58 57 59 0 
3 58 59 60 0 
3 60 61 58 0 
3 58 61 62 0 
3 58 62 37 0 
3 37 62 63 0 
3 37 63 35 0 
3 13 2 64 0 
3 64 2 65 0 
3 18 13 45 0 
3 45 13 40 0 
3 66 18 67 0 
3 67 18 68 0 
3 23 5 50 0 
3 50 5 34 0 
3 8 23 58 0 
3 58 23 50 0 
3 69 8 70 0 
3 70 8 71 0 
3 72 73 16 0 
3 16 73 74 0 
3 16 74 17 0 
3 17 74 75 0 
3 17 75 19 0 
3 19 75 76 0 
3 19 76 20 0 
3 20 76 77 0 
3 20 77 29 0 
3 29 77 78 0 
3 29 78 30 0 
3 30 78 79 0 
3 30 79 31 0 
3 31 79 80 0 
3 31 80 11 0 
3 11 80 81 0 
3 11 81 12 0 
3 12 81 82 0 
3 12 82 14 0 
3 14 82 83 0 
3 14 83 15 0 
3 15 83 84 0 
3 15 84 0 0 
3 0 84 85 0 
3 0 85 86 0 
3 86 85 87 0 
3 86 87 6 0 
3 6 87 88 0 
3 6 88 7 0 
3 7 88 89 0 
3 7 89 9 0 
3 9 89 90 0 
3 9 90 10 0 
3 10 90 91 0 
3 10 91 26 0 
3 26 91 92 0 
3 26 92 27 0 
3 27 92 93 0 
3 27 93 28 0 
3 28 93 94 0 
3 28 94 21 0 
3 21 94 95 0 
3 21 95 22 0 
3 22 95 96 0 
3 22 96 24 0 
3 24 96 97 0 
3 24 97 25 0 
3 25 97 98 0 
3 25 98 3 0 
3 3 98 99 0 
3 3 99 72 0 
3 72 99 73 0 
3 100 79 101 0 
3 101 79 78 0 
3 101 78 102 0 
3 102 78 77 0 
3 102 77 103 0 
3 103 77 76 0 
3 103 76 104 0 
3 104 76 75 0 
3 104 75 105 0 
3 105 75 74 0 
3 105 74 106 0 
3 106 74 107 0 
3 106 107 108 0 
3 108 107 99 0 
3 108 99 109 0 
3 109 99 98 0 
3 109 98 110 0 
3 110 98 97 0 
3 110 97 111 0 
3 111 97 96 0 
3 111 96 112 0 
3 112 96 95 0 
3 112 95 113 0 
3 95 94 113 0 
3 113 94 93 0 
3 113 93 114 0 
3 114 93 92 0 
3 114 92 115 0 
3 115 92 91 0 
3 115 91 116 0 
3 116 91 90 0 
3 116 90 117 0 
3 117 90 89 0 
3 117 89 118 0 
3 118 89 88 0 
3 118 88 119 0 
3 119 88 87 0 
3 119 87 120 0 
3 120 87 85 0 
3 120 85 121 0 
3 121 85 84 0 
3 121 84 122 0 
3 122 84 83 0 
3 122 83 123 0 
3 123 83 82 0 
3 123 82 124 0 
3 124 82 81 0 
3 124 81 100 0 
3 100 81 80 0 
3 100 80 79 0 
3 125 126 38 0 
3 38 126 127 0 
3 38 127 39 0 
3 39 127 128 0 
3 39 128 41 0 
3 41 128 129 0 
3 41 129 42 0 
3 42 129 130 0 
3 42 130 53 0 
3 53 130 131 0 
3 53 131 54 0 
3 54 131 132 0 
3 54 132 55 0 
3 55 132 133 0 
3 55 133 43 0 
3 43 133 134 0 
3 43 134 44 0 
3 44 134 135 0 
3 44 135 46 0 
3 46 135 136 0 
3 46 136 47 0 
3 47 136 137 0 
3 47 137 32 0 
3 32 137 138 0 
3 32 138 33 0 
3 33 138 139 0 
3 33 139 48 0 
3 48 139 140 0 
3 48 140 49 0 
3 49 140 141 0 
3 49 141 51 0 
3 51 141 142 0 
3 51 142 52 0 
3 52 142 143 0 
3 52 143 56 0 
3 56 143 144 0 
3 56 144 57 0 
3 57 144 145 0 
3 57 145 59 0 
3 59 145 146 0 
3 59 146 60 0 
3 60 146 147 0 
3 60 147 61 0 
3 61 147 148 0 
3 61 148 62 0 
3 62 148 149 0 
3 62 149 63 0 
3 63 149 150 0 
3 63 150 35 0 
3 35 150 151 0 
3 35 151 125 0 
3 125 151 126 0 
3 151 152 126 0 
3 126 152 153 0 
3 126 153 127 0 
3 127 153 154 0 
3 127 154 128 0 
3 128 154 155 0 
3 128 155 129 0 
3 129 155 156 0 
3 129 156 130 0 
3 130 156 157 0 
3 130 157 131 0 
3 131 157 158 0 
3 131 158 132 0 
3 132 158 159 0 
3 132 159 133 0 
3 133 159 160 0 
3 133 160 134 0 
3 134 160 161 0 
3 134 161 135 0 
3 135 161 162 0 
3 135 162 136 0 
3 136 162 163 0 
3 136 163 137 0 
3 137 163 164 0 
3 137 164 165 0 
3 165 164 166 0 
3 165 166 139 0 
3 139 166 167 0 
3 139 167 140 0 
3 140 167 168 0 
3 140 168 141 0 
3 141 168 169 0 
3 141 169 142 0 
3 142 169 170 0 
3 142 170 143 0 
3 143 170 171 0 
3 143 171 144 0 
3 144 171 172 0 
3 144 172 145 0 
3 145 172 173 0 
3 145 173 146 0 
3 146 173 174 0 
3 146 174 147 0 
3 147 174 175 0 
3 147 175 148 0 
3 148 175 176 0 
3 148 176 149 0 
3 149 176 177 0 
3 149 177 150 0 
3 150 177 178 0 
3 150 178 151 0 
3 151 178 152 0 
3 152 179 153 0 
3 153 179 180 0 
3 153 180 154 0 
3 154 180 181 0 
3 154 181 155 0 
3 155 181 182 0 
3 155 182 156 0 
3 156 182 183 0 
3 156 183 157 0 
3 157 183 184 0 
3 157 184 158 0 
3 158 184 185 0 
3 158 185 159 0 
3 159 185 186 0 
3 159 186 160 0 
3 160 186 187 0 
3 160 187 161 0 
3 161 187 188 0 
3 161 188 162 0 
3 162 188 189 0 
3 162 189 163 0 
3 163 189 190 0 
3 163 190 191 0 
3 191 190 192 0 
3 191 192 166 0 
3 166 192 193 0 
3 166 193 167 0 
3 167 193 194 0 
3 167 194 168 0 
3 168 194 195 0 
3 168 195 169 0 
3 169 195 196 0 
3 169 196 170 0 
3 170 196 197 0 
3 170 197 171 0 
3 171 197 198 0 
3 171 198 172 0 
3 172 198 199 0 
3 172 199 173 0 
3 173 199 200 0 
3 173 200 174 0 
3 174 200 201 0 
3 174 201 175 0 
3 175 201 202 0 
3 175 202 176 0 
3 176 202 203 0 
3 176 203 177 0 
3 177 203 204 0 
3 177 204 178 0 
3 178 204 205 0 
3 178 205 152 0 
3 152 205 179 0 
3 206 207 179 0 
3 179 207 208 0 
3 179 208 180 0 
3 180 208 209 0 
3 180 209 181 0 
3 181 209 210 0 
3 181 210 182 0 
3 182 210 211 0 
3 182 211 183 0 
3 183 211 212 0 
3 183 212 184 0 
3 184 212 213 0 
3 184 213 185 0 
3 185 213 214 0 
3 185 214 186 0 
3 186 214 215 0 
3 186 215 187 0 
3 187 215 216 0 
3 187 216 188 0 
3 188 216 217 0 
3 188 217 189 0 
3 189 217 218 0 
3 189 218 190 0 
3 190 218 219 0 
3 190 219 192 0 
3 192 219 220 0 
3 192 220 193 0 
3 193 220 221 0 
3 193 221 194 0 
3 194 221 222 0 
3 194 222 195 0 
3 195 222 223 0 
3 195 223 196 0 
3 196 223 224 0 
3 196 224 197 0 
3 197 224 225 0 
3 197 225 198 0 
3 198 225 226 0 
3 198 226 199 0 
3 199 226 227 0 
3 199 227 200 0 
3 200 227 228 0 
3 200 228 201 0 
3 201 228 229 0 
3 201 229 202 0 
3 202 229 230 0 
3 202 230 203 0 
3 203 230 231 0 
3 203 231 204 0 
3 204 231 232 0 
3 204 232 206 0 
3 206 232 207 0 
3 232 233 207 0 
3 207 233 234 0 
3 207 234 208 0 
3 208 234 235 0 
3 208 235 209 0 
3 209 235 236 0 
3 209 236 210 0 
3 210 236 237 0 
3 210 237 211 0 
3 211 237 238 0 
3 211 238 212 0 
3 212 238 239 0 
3 212 239 213 0 
3 213 239 240 0 
3 213 240 214 0 
3 214 240 241 0 
3 214 241 215 0 
3 215 241 242 0 
3 215 242 216 0 
3 216 242 243 0 
3 216 243 217 0 
3 217 243 244 0 
3 217 244 218 0 
3 218 244 245 0 
3 218 245 246 0 
3 246 245 247 0 
3 246 247 220 0 
3 220 247 248 0 
3 220 248 221 0 
3 221 248 249 0 
3 221 249 222 0 
3 222 249 250 0 
3 222 250 223 0 
3 223 250 251 0 
3 223 251 224 0 
3 224 251 252 0 
3 224 252 225 0 
3 225 252 253 0 
3 225 253 226 0 
3 226 253 254 0 
3 226 254 227 0 
3 227 254 255 0 
3 227 255 228 0 
3 228 255 256 0 
3 228 256 229 0 
3 229 256 257 0 
3 229 257 230 0 
3 230 257 258 0 
3 230 258 231 0 
3 231 258 259 0 
3 231 259 232 0 
3 232 259 233 0 
3 233 260 234 0 
3 234 260 261 0 
3 234 261 235 0 
3 235 261 262 0 
3 235 262 236 0 
3 236 262 263 0 
3 236 263 237 0 
3 237 263 264 0 
3 237 264 238 0 
3 238 264 265 0 
3 238 265 239 0 
3 239 265 266 0 
3 239 266 240 0 
3 240 266 267 0 
3 240 267 241 0 
3 241 267 268 0 
3 241 268 242 0 
3 242 268 269 0 
3 242 269 243 0 
3 243 269 270 0 
3 243 270 244 0 
3 244 270 271 0 
3 244 271 272 0 
3 272 271 273 0 
3 272 273 247 0 
3 247 273 274 0 
3 247 274 248 0 
3 248 274 275 0 
3 248 275 249 0 
3 249 275 276 0 
3 249 276 250 0 
3 250 276 277 0 
3 250 277 251 0 
3 251 277 278 0 
3 251 278 252 0 
3 252 278 279 0 
3 252 279 253 0 
3 253 279 280 0 
3 253 280 254 0 
3 254 280 281 0 
3 254 281 255 0 
3 255 281 282 0 
3 255 282 256 0 
3 256 282 283 0 
3 256 283 257 0 
3 257 283 284 0 
3 257 284 258 0 
3 258 284 285 0 
3 258 285 259 0 
3 259 285 286 0 
3 259 286 233 0 
3 233 286 260 0 
3 287 288 260 0 
3 260 288 289 0 
3 260 289 261 0 
3 261 289 290 0 
3 261 290 262 0 
3 262 290 291 0 
3 262 291 263 0 
3 263 291 292 0 
3 263 292 264 0 
3 264 292 293 0 
3 264 293 265 0 
3 265 293 294 0 
3 265 294 266 0 
3 266 294 295 0 
3 266 295 267 0 
3 267 295 296 0 
3 267 296 268 0 
3 268 296 297 0 
3 268 297 269 0 
3 269 297 298 0 
3 269 298 270 0 
3 270 298 299 0 
3 270 299 271 0 
3 271 299 300 0 
3 271 300 273 0 
3 273 300 301 0 
3 273 301 274 0 
3 274 301 302 0 
3 274 302 275 0 
3 275 302 303 0 
3 275 303 276 0 
3 276 303 304 0 
3 276 304 277 0 
3 277 304 305 0 
3 277 305 278 0 
3 278 305 306 0 
3 278 306 279 0 
3 279 306 307 0 
3 279 307 280 0 
3 280 307 308 0 
3 280 308 281 0 
3 281 308 309 0 
3 281 309 282 0 
3 282 309 310 0 
3 282 310 283 0 
3 283 310 311 0 
3 283 311 284 0 
3 284 311 312 0 
3 284 312 285 0 
3 285 312 313 0 
3 285 313 287 0 
3 287 313 288 0 
3 313 314 288 0 
3 288 314 315 0 
3 288 315 289 0 
3 289 315 316 0 
3 289 316 290 0 
3 290 316 317 0 
3 290 317 291 0 
3 291 317 318 0 
3 291 318 292 0 
3 292 318 319 0 
3 292 319 293 0 
3 293 319 320 0 
3 293 320 294 0 
3 294 320 321 0 
3 294 321 295 0 
3 295 321 322 0 
3 295 322 296 0 
3 296 322 323 0 
3 296 323 297 0 
3 297 323 324 0 
3 297 324 298 0 
3 298 324 325 0 
3 298 325 299 0 
3 299 325 326 0 
3 299 326 327 0 
3 327 326 328 0 
3 327 328 301 0 
3 301 328 329 0 
3 301 329 302 0 
3 302 329 330 0 
3 302 330 303 0 
3 303 330 331 0 
3 303 331 304 0 
3 304 331 332 0 
3 304 332 305 0 
3 305 332 333 0 
3 305 333 306 0 
3 306 333 334 0 
3 306 334 307 0 
3 307 334 335 0 
3 307 335 308 0 
3 308 335 336 0 
3 308 336 309 0 
3 309 336 337 0 
3 309 337 310 0 
3 310 337 338 0 
3 310 338 311 0 
3 311 338 339 0 
3 311 339 312 0 
3 312 339 340 0 
3 312 340 313 0 
3 313 340 314 0 
3 314 341 315 0 
3 315 341 342 0 
3 315 342 316 0 
3 316 342 343 0 
3 316 343 317 0 
3 317 343 344 0 
3 317 344 318 0 
3 318 344 345 0 
3 318 345 319 0 
3 319 345 346 0 
3 319 346 320 0 
3 320 346 347 0 
3 320 347 321 0 
3 321 347 348 0 
3 321 348 322 0 
3 322 348 349 0 
3 322 349 323 0 
3 323 349 350 0 
3 323 350 324 0 
3 324 350 351 0 
3 324 351 325 0 
3 325 351 352 0 
3 325 352 353 0 
3 353 352 354 0 
3 353 354 328 0 
3 328 354 355 0 
3 328 355 329 0 
3 329 355 356 0 
3 329 356 330 0 
3 330 356 357 0 
3 330 357 331 0 
3 331 357 358 0 
3 331 358 332 0 
3 332 358 359 0 
3 332 359 333 0 
3 333 359 360 0 
3 333 360 334 0 
3 334 360 361 0 
3 334 361 335 0 
3 335 361 362 0 
3 335 362 336 0 
3 336 362 363 0 
3 336 363 337 0 
3 337 363 364 0 
3 337 364 338 0 
3 338 364 365 0 
3 338 365 339 0 
3 339 365 366 0 
3 339 366 340 0 
3 340 366 367 0 
3 340 367 314 0 
3 314 367 341 0 
3 368 369 341 0 
3 341 369 370 0 
3 341 370 342 0 
3 342 370 371 0 
3 342 371 343 0 
3 343 371 372 0 
3 343 372 344 0 
3 344 372 373 0 
3 344 373 345 0 
3 345 373 374 0 
3 345 374 346 0 
3 346 374 375 0 
3 346 375 347 0 
3 347 375 376 0 
3 347 376 348 0 
3 348 376 377 0 
3 348 377 349 0 
3 349 377 378 0 
3 349 378 350 0 
3 350 378 379 0 
3 350 379 351 0 
3 351 379 380 0 
3 351 380 352 0 
3 352 380 381 0 
3 352 381 354 0 
3 354 381 382 0 
3 354 382 355 0 
3 355 382 383 0 
3 355 383 356 0 
3 356 383 384 0 
3 356 384 357 0 
3 357 384 385 0 
3 357 385 358 0 
3 358 385 386 0 
3 358 386 359 0 
3 359 386 387 0 
3 359 387 360 0 
3 360 387 388 0 
3 360 388 361 0 
3 361 388 389 0 
3 361 389 362 0 
3 362 389 390 0 
3 362 390 363 0 
3 363 390 391 0 
3 363 391 364 0 
3 364 391 392 0 
3 364 392 365 0 
3 365 392 393 0 
3 365 393 366 0 
3 366 393 394 0 
3 366 394 368 0 
3 368 394 369 0 
3 395 387 396 0 
3 396 387 386 0 
3 396 386 397 0 
3 397 386 385 0 
3 397 385 398 0 
3 398 385 384 0 
3 398 384 399 0 
3 399 384 383 0 
3 399 383 400 0 
3 400 383 382 0 
3 400 382 401 0 
3 401 382 381 0 
3 401 381 402 0 
3 402 381 380 0 
3 402 380 403 0 
3 403 380 379 0 
3 403 379 404 0 
3 404 379 378 0 
3 404 378 405 0 
3 405 378 377 0 
3 405 377 406 0 
3 406 377 376 0 
3 406 376 407 0 
3 376 375 407 0 
3 407 375 374 0 
3 407 374 408 0 
3 408 374 373 0 
3 408 373 409 0 
3 409 373 372 0 
3 409 372 410 0 
3 410 372 371 0 
3 410 371 411 0 
3 411 371 370 0 
3 411 370 412 0 
3 412 370 369 0 
3 412 369 413 0 
3 413 369 394 0 
3 413 394 414 0 
3 414 394 393 0 
3 414 393 415 0 
3 415 393 392 0 
3 415 392 416 0 
3 416 392 391 0 
3 416 391 417 0 
3 417 391 390 0 
3 417 390 418 0 
3 418 390 389 0 
3 418 389 395 0 
3 395 389 388 0 
3 395 388 387 0 
3 413 419 412 0 
3 412 419 120 0 
3 412 120 411 0 
3 411 120 121 0 
3 411 121 410 0 
3 410 121 122 0 
3 410 122 409 0 
3 409 122 123 0 
3 409 123 408 0 
3 408 123 124 0 
3 408 124 420 0 
3 420 124 421 0 
3 420 421 406 0 
3 406 421 101 0 
3 406 101 405 0 
3 405 101 102 0 
3 405 102 404 0 
3 404 102 103 0 
3 404 103 403 0 
3 403 103 104 0 
3 403 104 402 0 
3 402 104 105 0 
3 402 105 401 0 
3 401 105 106 0 
3 401 106 400 0 
3 400 106 108 0 
3 400 108 399 0 
3 399 108 109 0 
3 399 109 398 0 
3 398 109 110 0 
3 398 110 397 0 
3 397 110 111 0 
3 397 111 396 0 
3 396 111 112 0 
3 396 112 422 0 
3 422 112 423 0 
3 422 423 418 0 
3 418 423 114 0 
3 418 114 417 0 
3 417 114 115 0 
3 417 115 416 0 
3 416 115 116 0 
3 416 116 415 0 
3 415 116 117 0 
3 415 117 414 0 
3 414 117 118 0 
3 414 118 413 0 
3 413 118 419 0 
